<?xml version="1.0" standalone="no"?>
<!DOCTYPE svg PUBLIC "-//W3C//DTD SVG 20010904//EN"
 "http://www.w3.org/TR/2001/REC-SVG-20010904/DTD/svg10.dtd">
<svg version="1.0" xmlns="http://www.w3.org/2000/svg"
 width="832.000000pt" height="832.000000pt" viewBox="0 0 832.000000 832.000000"
 preserveAspectRatio="xMidYMid meet">
<metadata>
Created by potrace 1.14, written by Peter Selinger 2001-2017
</metadata>
<g transform="translate(0.000000,832.000000) scale(0.100000,-0.100000)"
fill="#000000" stroke="none">
<path d="M4507 6563 c-156 -170 -442 -463 -635 -652 l-352 -344 0 -788 0 -789
-120 0 -120 0 -623 -627 c-343 -346 -667 -674 -720 -730 l-97 -101 0 -325 c0
-283 2 -328 16 -341 14 -14 74 -16 514 -16 l499 0 15 22 c12 16 16 47 16 115
l0 93 650 0 650 0 0 -96 c0 -52 5 -104 10 -115 10 -18 26 -19 469 -19 l458 0
444 451 444 452 3 400 c2 348 1 403 -13 423 -14 22 -22 24 -100 24 l-85 0 0
568 c0 538 -1 570 -18 585 -17 15 -58 17 -383 17 l-365 0 -62 63 -62 63 0 252
0 252 284 0 284 0 281 332 281 331 0 392 c0 291 -3 394 -12 403 -9 9 -165 12
-639 12 l-628 0 -284 -307z m1383 201 c0 -3 -104 -118 -231 -255 l-230 -249
-526 0 -525 0 44 49 c24 27 129 141 233 255 l190 206 523 0 c287 0 522 -3 522
-6z m80 -368 l0 -284 -206 -244 c-114 -133 -217 -254 -230 -268 l-24 -25 0
306 0 306 227 247 c124 135 228 246 230 246 1 0 3 -128 3 -284z m-570 -561 l0
-325 -392 0 -393 -1 -178 -172 -177 -172 0 -431 0 -431 63 -104 c35 -57 76
-123 90 -146 l27 -43 335 0 335 0 0 -185 c0 -172 1 -186 20 -205 29 -29 46
-25 101 21 l49 41 -1 -384 0 -383 -125 -113 -124 -113 0 -370 0 -369 -360 0
-360 0 0 104 c0 97 -2 106 -22 120 -20 14 -107 16 -742 16 -655 0 -721 -1
-738 -17 -15 -14 -18 -32 -18 -120 l0 -103 -420 0 -420 0 0 273 1 272 307 313
307 313 243 -1 242 0 0 -158 c0 -110 4 -162 12 -170 9 -9 166 -12 644 -12
l632 0 91 75 91 76 0 102 0 102 -445 453 -445 453 0 743 0 742 327 317 326
317 559 0 558 0 0 -325z m-570 -677 l-1 -243 -227 -242 -227 -242 -3 342 -2
341 142 143 143 143 87 0 88 0 0 -242z m95 -398 l39 -39 -55 -58 c-30 -32
-141 -151 -248 -265 -106 -115 -196 -208 -200 -208 -12 0 -62 93 -57 107 8 21
459 502 471 502 6 1 28 -17 50 -39z m443 -366 c-127 -146 -236 -268 -242 -270
-6 -2 -137 -3 -291 -2 l-279 3 249 268 249 267 273 0 273 0 -232 -266z m-1713
-534 c18 -20 17 -20 -175 -20 -192 0 -193 0 -175 20 17 18 31 20 175 20 144 0
158 -2 175 -20z m35 -275 c0 -142 1 -155 19 -165 12 -6 96 -10 203 -10 l183 0
157 -157 c155 -154 158 -159 158 -200 l0 -43 -520 0 -520 0 0 175 c0 162 -1
175 -19 185 -12 6 -117 10 -273 10 l-253 0 180 180 180 180 252 0 253 0 0
-155z m152 3 l-42 -43 0 85 0 85 42 -43 43 -42 -43 -42z m138 -53 c11 -13 8
-15 -15 -15 -23 0 -26 2 -15 15 7 8 14 15 15 15 1 0 8 -7 15 -15z m1930 -38
c0 -2 -18 -18 -40 -36 l-40 -32 0 36 c0 34 1 35 40 35 22 0 40 -1 40 -3z
m-2785 -247 c-17 -19 -31 -20 -233 -20 -214 0 -215 0 -197 20 17 19 31 20 233
20 214 0 215 0 197 -20z m90 -289 l-55 -56 0 110 0 109 53 54 52 53 3 -108 3
-107 -56 -55z m1080 -71 c-4 -6 -182 -10 -501 -10 -328 0 -493 3 -489 10 4 6
182 10 501 10 328 0 493 -3 489 -10z"/>
</g>
</svg>
